<?xml version="1.0" encoding="UTF-8" standalone="no"?>
<svg
   xmlns:dc="http://purl.org/dc/elements/1.1/"
   xmlns:cc="http://creativecommons.org/ns#"
   xmlns:rdf="http://www.w3.org/1999/02/22-rdf-syntax-ns#"
   xmlns:svg="http://www.w3.org/2000/svg"
   xmlns="http://www.w3.org/2000/svg"
   xmlns:sodipodi="http://sodipodi.sourceforge.net/DTD/sodipodi-0.dtd"
   xmlns:inkscape="http://www.inkscape.org/namespaces/inkscape"
   width="1400"
   height="200"
   version="1.1"
   id="svg84"
   sodipodi:docname="bilahari4.svg"
   inkscape:version="0.92.4 (5da689c313, 2019-01-14)">
  <metadata
     id="metadata90">
    <rdf:RDF>
      <cc:Work
         rdf:about="">
        <dc:format>image/svg+xml</dc:format>
        <dc:type
           rdf:resource="http://purl.org/dc/dcmitype/StillImage" />
      </cc:Work>
    </rdf:RDF>
  </metadata>
  <defs
     id="defs88" />
  <sodipodi:namedview
     pagecolor="#ffffff"
     bordercolor="#666666"
     borderopacity="1"
     objecttolerance="10"
     gridtolerance="10"
     guidetolerance="10"
     inkscape:pageopacity="0"
     inkscape:pageshadow="2"
     inkscape:window-width="1366"
     inkscape:window-height="715"
     id="namedview86"
     showgrid="false"
     inkscape:zoom="0.86285714"
     inkscape:cx="700"
     inkscape:cy="100"
     inkscape:window-x="-8"
     inkscape:window-y="-8"
     inkscape:window-maximized="1"
     inkscape:current-layer="svg84" />
  <g
     id="g191">
    <g
       transform="matrix(0.14492754,0,0,1.0079434,10,9.1545982)"
       id="g6">
      <line
         class="surLine"
         x1="0"
         y1="154.85429"
         x2="1380"
         y2="154.85429"
         style="stroke:#ebebeb"
         id="line2" />
      <line
         class="surLine"
         x1="0"
         y1="58.003738"
         x2="1380"
         y2="58.003738"
         style="stroke:#ebebeb"
         id="line4" />
    </g>
    <path
       id="#path"
       class="raagLine"
       d="m 15.75,139.68677 h 2.875 v 25.16752 h 5.75 v 0 h 5.75 v 0 h 5.75 v -11.87315 h 5.75 v -13.29437 h 5.75 v 0 h 5.75 v -23.0949 h 5.75 v 0 h 5.75 V 98.826554 h 5.75 v 0 h 5.75 V 68.00374 h 5.75 v 0 h 5.75 v 10.866449 h 5.75 v 0 h 5.75 v 19.956365 h 5.75 v 0 h 5.75 v 17.765316 h 5.75 v 0 h 5.75 V 98.826554 h 5.75 v 17.765316 h 5.75 v 15.84073 h 5.75 v 7.25417 h 5.75 v 13.29437 h 5.75 v 11.87315 h 5.75 v -11.87315 h 5.75 v 11.87315 h 5.75 v 5.41842 h 5.75 v 9.97819 h 5.75 v -15.39661 h 5.75 v 0 h 5.75 v 0 h 5.75 v 0 h 2.875"
       inkscape:connector-curvature="0"
       style="fill:none;stroke:#bf6aff" />
    <circle
       style="fill:#bf6aff"
       id="circle15"
       r="3"
       cy="139.68677"
       cx="15.75" />
    <circle
       style="fill:#bf6aff"
       id="circle17"
       r="3"
       cy="164.85429"
       cx="21.5" />
    <circle
       style="fill:#bf6aff"
       id="circle23"
       r="3"
       cy="152.98114"
       cx="38.75" />
    <circle
       style="fill:#bf6aff"
       id="circle25"
       r="3"
       cy="139.68677"
       cx="44.5" />
    <circle
       style="fill:#bf6aff"
       id="circle29"
       r="3"
       cy="116.59187"
       cx="56" />
    <circle
       style="fill:#bf6aff"
       id="circle33"
       r="3"
       cy="98.826553"
       cx="67.5" />
    <circle
       style="fill:#bf6aff"
       id="circle37"
       r="3"
       cy="68.003738"
       cx="79" />
    <circle
       style="fill:#bf6aff"
       id="circle41"
       r="3"
       cy="78.870186"
       cx="90.5" />
    <circle
       style="fill:#bf6aff"
       id="circle45"
       r="3"
       cy="98.826553"
       cx="102" />
    <circle
       style="fill:#bf6aff"
       id="circle49"
       r="3"
       cy="116.59187"
       cx="113.5" />
    <circle
       style="fill:#bf6aff"
       id="circle53"
       r="3"
       cy="98.826553"
       cx="125" />
    <circle
       style="fill:#bf6aff"
       id="circle55"
       r="3"
       cy="116.59187"
       cx="130.75" />
    <circle
       style="fill:#bf6aff"
       id="circle57"
       r="3"
       cy="132.4326"
       cx="136.5" />
    <circle
       style="fill:#bf6aff"
       id="circle59"
       r="3"
       cy="139.68677"
       cx="142.25" />
    <circle
       style="fill:#bf6aff"
       id="circle61"
       r="3"
       cy="152.98114"
       cx="148" />
    <circle
       style="fill:#bf6aff"
       id="circle63"
       r="3"
       cy="164.85429"
       cx="153.75" />
    <circle
       style="fill:#bf6aff"
       id="circle65"
       r="3"
       cy="152.98114"
       cx="159.5" />
    <circle
       style="fill:#bf6aff"
       id="circle67"
       r="3"
       cy="164.85429"
       cx="165.25" />
    <circle
       style="fill:#bf6aff"
       id="circle69"
       r="3"
       cy="170.27272"
       cx="171" />
    <circle
       style="fill:#bf6aff"
       id="circle71"
       r="3"
       cy="180.2509"
       cx="176.75" />
    <circle
       style="fill:#bf6aff"
       id="circle73"
       r="3"
       cy="164.85429"
       cx="182.5" />
  </g>
</svg>
