<?xml version="1.0" encoding="UTF-8" standalone="no"?>
<svg
   xmlns:dc="http://purl.org/dc/elements/1.1/"
   xmlns:cc="http://creativecommons.org/ns#"
   xmlns:rdf="http://www.w3.org/1999/02/22-rdf-syntax-ns#"
   xmlns:svg="http://www.w3.org/2000/svg"
   xmlns="http://www.w3.org/2000/svg"
   xmlns:sodipodi="http://sodipodi.sourceforge.net/DTD/sodipodi-0.dtd"
   xmlns:inkscape="http://www.inkscape.org/namespaces/inkscape"
   width="309.02344"
   height="190.01105"
   version="1.1"
   id="svg130"
   sodipodi:docname="bilahari1.svg"
   inkscape:version="0.92.4 (5da689c313, 2019-01-14)">
  <metadata
     id="metadata136">
    <rdf:RDF>
      <cc:Work
         rdf:about="">
        <dc:format>image/svg+xml</dc:format>
        <dc:type
           rdf:resource="http://purl.org/dc/dcmitype/StillImage" />
        <dc:title></dc:title>
      </cc:Work>
    </rdf:RDF>
  </metadata>
  <defs
     id="defs134" />
  <sodipodi:namedview
     pagecolor="#ffffff"
     bordercolor="#666666"
     borderopacity="1"
     objecttolerance="10"
     gridtolerance="10"
     guidetolerance="10"
     inkscape:pageopacity="0"
     inkscape:pageshadow="2"
     inkscape:window-width="1366"
     inkscape:window-height="715"
     id="namedview132"
     showgrid="false"
     fit-margin-top="0"
     fit-margin-left="0"
     fit-margin-right="0"
     fit-margin-bottom="0"
     inkscape:zoom="2.8156258"
     inkscape:cx="154.51172"
     inkscape:cy="95.005524"
     inkscape:window-x="-8"
     inkscape:window-y="-8"
     inkscape:window-maximized="1"
     inkscape:current-layer="svg130" />
  <line
     class="surLine"
     x1="18.023001"
     y1="156.06842"
     x2="303.02301"
     y2="156.06842"
     style="stroke:#ebebeb;stroke-width:0.49145234"
     id="line10" />
  <path
     style="fill:none;stroke:#bf6aff"
     inkscape:connector-curvature="0"
     d="m 18.242187,156.06841 h 4.609375 v 0 h 9.21875 v 0 h 9.21875 v -11.87315 h 9.21875 v -13.29437 h 9.21875 v 0 h 9.21875 v -23.0949 h 9.21875 v 0 h 9.21875 V 90.040674 h 9.21875 v 0 h 9.218758 V 59.21786 h 9.21875 v 0 h 9.21875 v 10.866449 h 9.21875 v 0 h 9.21874 v 19.956365 h 9.21875 v 0 h 9.21875 v 17.765316 h 9.21875 v 0 h 9.21875 V 90.040674 h 9.21875 v 17.765316 h 9.21875 v 15.84073 h 9.21875 v 7.25417 h 9.21875 v 13.29437 h 9.21875 v 11.87315 h 9.21875 v -11.87315 h 9.21875 v 11.87315 h 9.21875 v 5.41842 h 9.21875 v 9.97819 h 9.21875 v -15.39661 h 9.21875 v 0 h 9.21875 v 0 h 9.21875 v 0 h 4.60938"
     class="raagLine"
     id="#path" />
  <circle
     cx="18.242188"
     cy="156.06842"
     r="3"
     id="circle63"
     style="fill:#bf6aff" />
  <circle
     cx="45.898438"
     cy="144.19527"
     r="3"
     id="circle69"
     style="fill:#bf6aff" />
  <circle
     cx="55.117188"
     cy="130.90089"
     r="3"
     id="circle71"
     style="fill:#bf6aff" />
  <circle
     cx="73.554688"
     cy="107.80599"
     r="3"
     id="circle75"
     style="fill:#bf6aff" />
  <circle
     cx="91.992188"
     cy="90.040672"
     r="3"
     id="circle79"
     style="fill:#bf6aff" />
  <circle
     cx="110.42969"
     cy="59.217857"
     r="3"
     id="circle83"
     style="fill:#bf6aff" />
  <circle
     cx="128.86719"
     cy="70.084305"
     r="3"
     id="circle87"
     style="fill:#bf6aff" />
  <circle
     cx="147.30469"
     cy="90.040672"
     r="3"
     id="circle91"
     style="fill:#bf6aff" />
  <circle
     cx="165.74219"
     cy="107.80599"
     r="3"
     id="circle95"
     style="fill:#bf6aff" />
  <circle
     cx="184.17969"
     cy="90.040672"
     r="3"
     id="circle99"
     style="fill:#bf6aff" />
  <circle
     cx="193.39844"
     cy="107.80599"
     r="3"
     id="circle101"
     style="fill:#bf6aff" />
  <circle
     cx="202.61719"
     cy="123.64672"
     r="3"
     id="circle103"
     style="fill:#bf6aff" />
  <circle
     cx="211.83594"
     cy="130.90089"
     r="3"
     id="circle105"
     style="fill:#bf6aff" />
  <circle
     cx="221.05469"
     cy="144.19527"
     r="3"
     id="circle107"
     style="fill:#bf6aff" />
  <circle
     cx="230.27344"
     cy="156.06842"
     r="3"
     id="circle109"
     style="fill:#bf6aff" />
  <circle
     cx="239.49219"
     cy="144.19527"
     r="3"
     id="circle111"
     style="fill:#bf6aff" />
  <circle
     cx="248.71094"
     cy="156.06842"
     r="3"
     id="circle113"
     style="fill:#bf6aff" />
  <circle
     cx="257.92969"
     cy="161.48685"
     r="3"
     id="circle115"
     style="fill:#bf6aff" />
  <circle
     cx="267.14844"
     cy="171.46503"
     r="3"
     id="circle117"
     style="fill:#bf6aff" />
  <circle
     cx="276.36719"
     cy="156.06842"
     r="3"
     id="circle119"
     style="fill:#bf6aff" />
  <circle
     style="opacity:1;vector-effect:none;fill:#fbd0d0;fill-opacity:1;stroke:none;stroke-width:10;stroke-linecap:butt;stroke-linejoin:miter;stroke-miterlimit:4;stroke-dasharray:none;stroke-dashoffset:0;stroke-opacity:1"
     id="path1053"
     cx="261.79102"
     cy="48.935467"
     r="45" />
</svg>
