<?xml version="1.0" encoding="UTF-8" standalone="no"?>
<!-- Created with Inkscape (http://www.inkscape.org/) -->

<svg
   xmlns:dc="http://purl.org/dc/elements/1.1/"
   xmlns:cc="http://creativecommons.org/ns#"
   xmlns:rdf="http://www.w3.org/1999/02/22-rdf-syntax-ns#"
   xmlns:svg="http://www.w3.org/2000/svg"
   xmlns="http://www.w3.org/2000/svg"
   xmlns:sodipodi="http://sodipodi.sourceforge.net/DTD/sodipodi-0.dtd"
   xmlns:inkscape="http://www.inkscape.org/namespaces/inkscape"
   width="300"
   height="75"
   viewBox="0 0 79.375002 19.843749"
   version="1.1"
   id="svg8"
   inkscape:version="0.92.4 (5da689c313, 2019-01-14)"
   sodipodi:docname="sur-bujho-inside.svg"
   inkscape:export-filename="D:\vani-www\rhythmin-verse\sur-bujho\sur-bujho-strip.png"
   inkscape:export-xdpi="192"
   inkscape:export-ydpi="192">
  <defs
     id="defs2" />
  <sodipodi:namedview
     id="base"
     pagecolor="#ffffff"
     bordercolor="#666666"
     borderopacity="1.0"
     inkscape:pageopacity="0.0"
     inkscape:pageshadow="2"
     inkscape:zoom="2.0694658"
     inkscape:cx="162.94924"
     inkscape:cy="37.5"
     inkscape:document-units="mm"
     inkscape:current-layer="layer1"
     showgrid="false"
     inkscape:showpageshadow="false"
     units="px"
     inkscape:window-width="1366"
     inkscape:window-height="715"
     inkscape:window-x="-8"
     inkscape:window-y="-8"
     inkscape:window-maximized="1"
     borderlayer="true" />
  <metadata
     id="metadata5">
    <rdf:RDF>
      <cc:Work
         rdf:about="">
        <dc:format>image/svg+xml</dc:format>
        <dc:type
           rdf:resource="http://purl.org/dc/dcmitype/StillImage" />
        <dc:title />
      </cc:Work>
    </rdf:RDF>
  </metadata>
  <g
     inkscape:label="Layer 1"
     inkscape:groupmode="layer"
     id="layer1"
     transform="translate(0,-277.15627)">
    <rect
       style="opacity:1;vector-effect:none;fill:#ffffff;fill-opacity:1;fill-rule:evenodd;stroke:none;stroke-width:2.64583325;stroke-linecap:butt;stroke-linejoin:miter;stroke-miterlimit:4;stroke-dasharray:none;stroke-dashoffset:0;stroke-opacity:1"
       id="rect851"
       width="90.134972"
       height="27.48797"
       x="-4.4747858"
       y="274.11469" />
    <path
       id="path2"
       d="M 0.44477464,282.82971 C 4.8111932,288.73733 28.241896,267.74185 35.597313,267.52172 c 5.760508,-0.17255 -0.484849,14.16658 4.724664,16.63091 12.420071,5.87507 24.948091,-21.3069 37.798375,-16.442"
       inkscape:connector-curvature="0"
       style="fill:none;stroke:#e100e4;stroke-width:0.26458332;stroke-opacity:0.5572139"
       sodipodi:nodetypes="cccc" />
    <path
       id="path4"
       d="m 0.35031834,285.53111 c 4.36641886,5.90762 27.79712166,-15.08787 35.15253766,-15.308 5.760509,-0.17254 -0.484849,14.16659 4.724665,16.63092 12.420071,5.87507 24.948091,-21.3069 37.798374,-16.44201"
       inkscape:connector-curvature="0"
       style="fill:none;stroke:#e100e4;stroke-width:0.26458332;stroke-opacity:0.5572139"
       sodipodi:nodetypes="cccc" />
    <path
       id="path6"
       d="m 0.53923083,287.64777 c 4.36641807,5.90762 27.79712117,-15.08786 35.15253817,-15.308 5.760508,-0.17254 -0.484849,14.16659 4.724664,16.63092 12.420071,5.87507 24.948092,-21.3069 37.798375,-16.442"
       inkscape:connector-curvature="0"
       style="fill:none;stroke:#e100e4;stroke-width:0.26458332;stroke-opacity:0.5572139"
       sodipodi:nodetypes="cccc" />
    <path
       id="path8"
       d="M 0.35031834,291.38898 C 4.7167372,297.2966 28.14744,276.30112 35.502856,276.08099 c 5.760509,-0.17255 -0.484849,14.16658 4.724665,16.63091 12.420071,5.87507 24.948091,-21.30689 37.798374,-16.442"
       inkscape:connector-curvature="0"
       style="fill:none;stroke:#e100e4;stroke-width:0.26458332;stroke-opacity:0.5572139"
       sodipodi:nodetypes="cccc" />
    <path
       id="path10"
       d="m 0.16140584,294.41317 c 4.36641836,5.90762 27.79712116,-15.08786 35.15253816,-15.308 5.760508,-0.17254 -0.484849,14.16659 4.724664,16.63092 12.420071,5.87507 24.948092,-21.3069 37.798375,-16.442"
       inkscape:connector-curvature="0"
       style="fill:none;stroke:#e100e4;stroke-width:0.26458332;stroke-opacity:0.5572139"
       sodipodi:nodetypes="cccc" />
    <path
       inkscape:connector-curvature="0"
       d="m 9.6804812,291.90123 c 0.205952,0.74507 -0.4755207,1.63925 -1.5221001,1.9972 -1.0465804,0.35796 -2.0619728,0.0441 -2.2679245,-0.70092 -0.205952,-0.74506 0.4754987,-1.63924 1.5221001,-1.9972 1.0466014,-0.35796 2.0619718,-0.0441 2.2679245,0.70092 z"
       id="path12"
       style="fill:#000000;stroke-width:0.23418826;fill-opacity:1.0" />
    <path
       style="fill:#000000;stroke:#000000;stroke-width:0.37041557;stroke-linecap:round;stroke-linejoin:round;stroke-opacity:1;fill-opacity:1.0"
       inkscape:connector-curvature="0"
       d="M 9.5665015,291.97717 5.8550426,280.95165 c 4.5582704,1.64365 3.8705776,1.97033 3.8478876,4.93218 2.0598028,-4.17953 -0.4484337,-4.43022 -3.8899836,-4.96765"
       id="path14" />
    <g
       aria-label="Sur Bujho"
       style="font-style:normal;font-variant:normal;font-weight:bold;font-stretch:normal;font-size:4.93888855px;line-height:0;font-family:Arial;-inkscape-font-specification:'Arial Bold';letter-spacing:0px;word-spacing:0px;fill:#e100e4;fill-opacity:1;stroke:none;stroke-width:0.26458332"
       id="text1083"
       transform="translate(-0.384615,19.050006)">
      <path
         inkscape:connector-curvature="0"
         d="m 20.673934,266.67729 q -0.434622,-0.14817 -0.790222,-0.29634 -0.3556,-0.15804 -0.612422,-0.37535 -0.256822,-0.21731 -0.404989,-0.51365 -0.138289,-0.30621 -0.138289,-0.74083 0,-0.83961 0.642056,-1.34338 0.651933,-0.50376 1.817511,-0.50376 0.424744,0 0.790222,0.0593 0.365478,0.0593 0.6223,0.18768 0.2667,0.11853 0.414867,0.31609 0.148166,0.18768 0.148166,0.4445 0,0.25682 -0.118533,0.4445 -0.118533,0.1778 -0.286455,0.30621 -0.217312,-0.13829 -0.582789,-0.23707 -0.365478,-0.10865 -0.8001,-0.10865 -0.4445,0 -0.651934,0.12841 -0.207433,0.11853 -0.207433,0.30621 0,0.14817 0.128411,0.24694 0.128411,0.0889 0.385233,0.16793 l 0.523523,0.16792 q 0.928511,0.29633 1.4224,0.76059 0.503766,0.45438 0.503766,1.2446 0,0.83961 -0.661811,1.36313 -0.661811,0.51365 -1.945922,0.51365 -0.454378,0 -0.849489,-0.079 -0.385233,-0.0691 -0.681567,-0.20743 -0.286455,-0.14817 -0.454377,-0.3556 -0.158045,-0.21731 -0.158045,-0.49389 0,-0.28645 0.167922,-0.48401 0.167923,-0.20743 0.365478,-0.31609 0.276578,0.21731 0.671689,0.37536 0.404989,0.15804 0.879122,0.15804 0.484011,0 0.681567,-0.14817 0.197556,-0.14816 0.197556,-0.34572 0,-0.19755 -0.158045,-0.29633 -0.158044,-0.10866 -0.4445,-0.20743 z"
         style="font-style:normal;font-variant:normal;font-weight:bold;font-stretch:normal;font-size:9.87777805px;font-family:Baloo;-inkscape-font-specification:'Baloo Bold';fill:#e100e4;fill-opacity:1;stroke-width:0.26458332"
         id="path1170" />
      <path
         inkscape:connector-curvature="0"
         d="m 24.248455,264.32638 q 0.09878,-0.0296 0.306211,-0.0593 0.217312,-0.0296 0.4445,-0.0296 0.217312,0 0.385234,0.0296 0.1778,0.0296 0.296333,0.11853 0.118533,0.0889 0.1778,0.24695 0.06914,0.14816 0.06914,0.39511 v 2.12372 q 0,0.40499 0.197555,0.58279 0.197556,0.16792 0.572911,0.16792 0.227189,0 0.365478,-0.0395 0.148167,-0.0395 0.227189,-0.079 v -3.45722 q 0.09878,-0.0296 0.306211,-0.0593 0.217311,-0.0296 0.4445,-0.0296 0.217311,0 0.385233,0.0296 0.1778,0.0296 0.296334,0.11853 0.118533,0.0889 0.1778,0.24695 0.06914,0.14816 0.06914,0.39511 v 3.00284 q 0,0.49389 -0.414866,0.74084 -0.345723,0.21731 -0.829734,0.32596 -0.474133,0.11854 -1.037167,0.11854 -0.5334,0 -0.987777,-0.11854 -0.4445,-0.11853 -0.770467,-0.36548 -0.325967,-0.24694 -0.503767,-0.63217 -0.1778,-0.39511 -0.1778,-0.94827 z"
         style="font-style:normal;font-variant:normal;font-weight:bold;font-stretch:normal;font-size:9.87777805px;font-family:Baloo;-inkscape-font-specification:'Baloo Bold';fill:#e100e4;fill-opacity:1;stroke-width:0.26458332"
         id="path1172" />
      <path
         inkscape:connector-curvature="0"
         d="m 31.676853,269.04795 q -0.09878,0.0296 -0.316089,0.0593 -0.207434,0.0296 -0.434623,0.0296 -0.217311,0 -0.395111,-0.0296 -0.167922,-0.0296 -0.286455,-0.11853 -0.118534,-0.0889 -0.187678,-0.23707 -0.05927,-0.15804 -0.05927,-0.40499 v -2.96333 q 0,-0.22719 0.07902,-0.38524 0.0889,-0.16792 0.246944,-0.29633 0.158044,-0.12841 0.385233,-0.22719 0.237067,-0.10865 0.503767,-0.18768 0.2667,-0.079 0.553156,-0.11853 0.286455,-0.0494 0.572911,-0.0494 0.474133,0 0.750711,0.18768 0.276578,0.1778 0.276578,0.59267 0,0.13829 -0.03951,0.27657 -0.03951,0.12842 -0.09878,0.23707 -0.207434,0 -0.424745,0.0198 -0.217311,0.0198 -0.424744,0.0593 -0.207433,0.0395 -0.395111,0.0889 -0.1778,0.0395 -0.306211,0.0988 z"
         style="font-style:normal;font-variant:normal;font-weight:bold;font-stretch:normal;font-size:9.87777805px;font-family:Baloo;-inkscape-font-specification:'Baloo Bold';fill:#e100e4;fill-opacity:1;stroke-width:0.26458332"
         id="path1174" />
      <path
         inkscape:connector-curvature="0"
         d="m 37.824536,267.82311 q 0.138288,0.0395 0.3556,0.0593 0.217311,0.01 0.414866,0.01 0.395111,0 0.651934,-0.15804 0.2667,-0.16792 0.2667,-0.51365 0,-0.32596 -0.217311,-0.46425 -0.217312,-0.13829 -0.661812,-0.13829 h -0.809977 z m 0,-2.41018 h 0.721077 q 0.424745,0 0.612423,-0.15804 0.197555,-0.15805 0.197555,-0.46426 0,-0.2667 -0.227189,-0.42474 -0.217311,-0.15805 -0.661811,-0.15805 -0.148167,0 -0.345722,0.01 -0.187678,0.01 -0.296333,0.0296 z m 0.642055,3.80295 q -0.167922,0 -0.395111,-0.01 -0.227189,-0.01 -0.474133,-0.0395 -0.237067,-0.0296 -0.474134,-0.079 -0.237066,-0.0395 -0.434622,-0.11853 -0.543278,-0.20743 -0.543278,-0.72108 v -4.61292 q 0,-0.20743 0.108656,-0.31609 0.118533,-0.11853 0.316089,-0.18768 0.335844,-0.11853 0.839611,-0.16792 0.503767,-0.0593 1.037167,-0.0593 1.264355,0 1.945922,0.42474 0.681567,0.42474 0.681567,1.31374 0,0.4445 -0.256823,0.77047 -0.256822,0.31609 -0.691444,0.46426 0.493889,0.13829 0.819855,0.50376 0.335845,0.36548 0.335845,0.91864 0,0.9779 -0.730956,1.45203 -0.721077,0.46426 -2.084211,0.46426 z"
         style="font-style:normal;font-variant:normal;font-weight:bold;font-stretch:normal;font-size:9.87777805px;font-family:Baloo;-inkscape-font-specification:'Baloo Bold';fill:#e100e4;fill-opacity:1;stroke-width:0.26458332"
         id="path1176" />
      <path
         inkscape:connector-curvature="0"
         d="m 42.074758,264.32638 q 0.09878,-0.0296 0.306211,-0.0593 0.217311,-0.0296 0.4445,-0.0296 0.217311,0 0.385233,0.0296 0.1778,0.0296 0.296334,0.11853 0.118533,0.0889 0.1778,0.24695 0.06914,0.14816 0.06914,0.39511 v 2.12372 q 0,0.40499 0.197556,0.58279 0.197555,0.16792 0.572911,0.16792 0.227189,0 0.365478,-0.0395 0.148166,-0.0395 0.227188,-0.079 v -3.45722 q 0.09878,-0.0296 0.306212,-0.0593 0.217311,-0.0296 0.4445,-0.0296 0.217311,0 0.385233,0.0296 0.1778,0.0296 0.296333,0.11853 0.118534,0.0889 0.1778,0.24695 0.06914,0.14816 0.06914,0.39511 v 3.00284 q 0,0.49389 -0.414867,0.74084 -0.345722,0.21731 -0.829733,0.32596 -0.474134,0.11854 -1.037167,0.11854 -0.5334,0 -0.987778,-0.11854 -0.4445,-0.11853 -0.770466,-0.36548 -0.325967,-0.24694 -0.503767,-0.63217 -0.1778,-0.39511 -0.1778,-0.94827 z"
         style="font-style:normal;font-variant:normal;font-weight:bold;font-stretch:normal;font-size:9.87777805px;font-family:Baloo;-inkscape-font-specification:'Baloo Bold';fill:#e100e4;fill-opacity:1;stroke-width:0.26458332"
         id="path1178" />
      <path
         inkscape:connector-curvature="0"
         d="m 47.833812,262.92373 q 0,-0.37535 0.246944,-0.63218 0.256822,-0.25682 0.671689,-0.25682 0.414867,0 0.661811,0.25682 0.256822,0.25683 0.256822,0.63218 0,0.37536 -0.256822,0.63218 -0.246944,0.25682 -0.661811,0.25682 -0.414867,0 -0.671689,-0.25682 -0.246944,-0.25682 -0.246944,-0.63218 z m -0.335845,6.80579 q 0.217311,-0.13829 0.316089,-0.38523 0.09878,-0.23707 0.09878,-0.5334 v -4.48451 q 0.108655,-0.0198 0.316089,-0.0494 0.217311,-0.0395 0.434622,-0.0395 0.217311,0 0.385233,0.0296 0.1778,0.0296 0.296334,0.11853 0.118533,0.0889 0.1778,0.24695 0.06914,0.14816 0.06914,0.39511 v 3.94123 q 0,0.41487 -0.09878,0.75071 -0.09878,0.33585 -0.286455,0.57291 -0.1778,0.24695 -0.4445,0.37536 -0.256822,0.13829 -0.582789,0.13829 -0.434622,0 -0.681567,-0.2667 -0.246944,-0.25682 -0.256822,-0.65194 z"
         style="font-style:normal;font-variant:normal;font-weight:bold;font-stretch:normal;font-size:9.87777805px;font-family:Baloo;-inkscape-font-specification:'Baloo Bold';fill:#e100e4;fill-opacity:1;stroke-width:0.26458332"
         id="path1180" />
      <path
         inkscape:connector-curvature="0"
         d="m 55.40127,269.04795 q -0.09878,0.0296 -0.316089,0.0593 -0.207434,0.0296 -0.434622,0.0296 -0.217312,0 -0.395112,-0.0296 -0.167922,-0.0296 -0.286455,-0.11853 -0.118533,-0.0889 -0.187678,-0.23707 -0.05927,-0.15804 -0.05927,-0.40499 v -2.19287 q 0,-0.40498 -0.207433,-0.56303 -0.197556,-0.16792 -0.493889,-0.16792 -0.197555,0 -0.375355,0.0494 -0.1778,0.0494 -0.286456,0.11853 v 3.45722 q -0.09878,0.0296 -0.316089,0.0593 -0.207433,0.0296 -0.434622,0.0296 -0.217311,0 -0.395111,-0.0296 -0.167922,-0.0296 -0.286456,-0.11853 -0.118533,-0.0889 -0.187678,-0.23707 -0.05927,-0.15804 -0.05927,-0.40499 v -5.72911 q 0.108655,-0.0198 0.316089,-0.0494 0.217311,-0.0395 0.434622,-0.0395 0.217311,0 0.385233,0.0296 0.1778,0.0296 0.296334,0.11854 0.118533,0.0889 0.1778,0.24694 0.06914,0.14817 0.06914,0.39511 v 0.96802 q 0.128411,-0.0494 0.385233,-0.10865 0.2667,-0.0691 0.582789,-0.0691 0.9779,0 1.521178,0.49389 0.553156,0.48401 0.553156,1.45204 z"
         style="font-style:normal;font-variant:normal;font-weight:bold;font-stretch:normal;font-size:9.87777805px;font-family:Baloo;-inkscape-font-specification:'Baloo Bold';fill:#e100e4;fill-opacity:1;stroke-width:0.26458332"
         id="path1182" />
      <path
         d="m 61.416218,266.65753 c 0,0.40828 -0.06256,0.77376 -0.187677,1.09643 -0.125119,0.31609 -0.302919,0.58279 -0.5334,0.8001 -0.223897,0.21731 -0.493889,0.38194 -0.809978,0.49389 -0.316089,0.11195 -0.668397,0.16793 -1.056923,0.16793 -0.388525,0 -0.740833,-0.0593 -1.056922,-0.1778 -0.316089,-0.11853 -0.589374,-0.28646 -0.819855,-0.50377 -0.223897,-0.2239 -0.398404,-0.49389 -0.523523,-0.80998 -0.125118,-0.31609 -0.187677,-0.67169 -0.187677,-1.0668 0,-0.38853 0.06256,-0.74083 0.187677,-1.05692 0.125119,-0.31609 0.299626,-0.58279 0.523523,-0.8001 0.230481,-0.2239 0.503766,-0.39512 0.819855,-0.51365 0.316089,-0.11853 0.668397,-0.1778 1.056922,-0.1778 0.388526,0 0.740834,0.0626 1.056923,0.18768 0.316089,0.11853 0.586081,0.28975 0.809978,0.51365 0.230481,0.21731 0.408281,0.48401 0.5334,0.8001 0.125118,0.31609 0.187677,0.6651 0.187677,1.04704 z m -1.945922,-0.90875 c -39.646864,20.83415 -19.823432,10.41708 0,0 z"
         style="font-style:normal;font-variant:normal;font-weight:bold;font-stretch:normal;font-size:9.87777805px;font-family:Baloo;-inkscape-font-specification:'Baloo Bold';fill:#e100e4;fill-opacity:1;stroke-width:0.26458332"
         id="path1184"
         inkscape:connector-curvature="0"
         sodipodi:nodetypes="scccssccsccsscccscc" />
    </g>
    <path
       inkscape:connector-curvature="0"
       d="m 28.475261,261.76322 c 0.205952,0.74507 -0.47552,1.63925 -1.5221,1.9972 -1.04658,0.35796 -2.061973,0.0441 -2.267924,-0.70092 -0.205952,-0.74506 0.475498,-1.63924 1.5221,-1.9972 1.046601,-0.35796 2.061972,-0.0441 2.267924,0.70092 z"
       id="path12-4"
       style="fill:#ffffff;stroke-width:0.23418826" />
    <g
       aria-label="Guess The Notes Game"
       style="font-style:normal;font-variant:normal;font-weight:bold;font-stretch:normal;font-size:4.93888855px;line-height:0;font-family:Arial;-inkscape-font-specification:'Arial Bold';letter-spacing:0px;word-spacing:0px;fill:#000000;fill-opacity:1.0;stroke:none;stroke-width:0.26458332"
       id="text1189"
       transform="matrix(0.5,0,0,0.5,19.84375,150.64183)">
      <path
         d="m 10.929221,287.2704 q -0.270096,0.11025 -0.7028,0.21498 -0.4299478,0.10473 -0.8488714,0.10473 -0.9673829,0 -1.5434028,-0.55673 -0.5732639,-0.55948 -0.5732639,-1.58474 0,-0.96463 0.5732639,-1.54616 0.5760199,-0.58153 1.5737196,-0.58153 0.5153863,0 0.8378476,0.0992 0.322461,0.0965 0.66697,0.26459 v 0.96187 h -0.09371 q -0.07442,-0.0579 -0.214974,-0.16261 -0.137804,-0.10749 -0.270096,-0.1819 -0.15434,-0.0882 -0.3582899,-0.15159 -0.2011935,-0.0634 -0.4271918,-0.0634 -0.2645833,0 -0.4823134,0.0827 -0.21773,0.0827 -0.3886068,0.25356 -0.1626085,0.16536 -0.2590711,0.41892 -0.093707,0.25356 -0.093707,0.5898 0,0.71934 0.361046,1.06109 0.361046,0.34175 0.9866753,0.34175 0.055122,0 0.1295356,-0.003 0.074414,-0.003 0.1295356,-0.008 v -0.80478 H 9.1350148 v -0.76894 h 1.7942062 z"
         style="font-style:normal;font-variant:normal;font-weight:bold;font-stretch:normal;font-size:5.64444447px;font-family:Tahoma;-inkscape-font-specification:'Tahoma Bold';fill:#000000;fill-opacity:1.0;stroke-width:0.26458332"
         id="path1277"
         inkscape:connector-curvature="0" />
      <path
         d="m 14.531412,287.50467 h -0.964626 v -0.34175 q -0.250803,0.20946 -0.460265,0.3197 -0.209462,0.10749 -0.49885,0.10749 -0.460265,0 -0.719336,-0.28939 -0.256315,-0.29214 -0.256315,-0.87643 v -2.01469 h 0.970139 v 1.53513 q 0,0.23978 0.01102,0.39136 0.01378,0.15159 0.06063,0.25632 0.0441,0.0965 0.135048,0.14607 0.09371,0.0496 0.259071,0.0496 0.101975,0 0.239778,-0.0496 0.14056,-0.0496 0.259072,-0.13505 v -2.19383 h 0.964626 z"
         style="font-style:normal;font-variant:normal;font-weight:bold;font-stretch:normal;font-size:5.64444447px;font-family:Tahoma;-inkscape-font-specification:'Tahoma Bold';fill:#000000;fill-opacity:1.0;stroke-width:0.26458332"
         id="path1279"
         inkscape:connector-curvature="0" />
      <path
         d="m 16.857541,287.58735 q -0.876432,0 -1.344965,-0.41892 -0.465777,-0.41893 -0.465777,-1.19338 0,-0.75792 0.43546,-1.20992 0.43546,-0.452 1.218186,-0.452 0.711067,0 1.069357,0.3831 0.35829,0.38309 0.35829,1.09692 v 0.34726 h -2.11391 q 0.01378,0.21498 0.09095,0.36105 0.07717,0.14331 0.20395,0.22875 0.124023,0.0854 0.289388,0.12403 0.165364,0.0358 0.361046,0.0358 0.168121,0 0.330729,-0.0358 0.162609,-0.0386 0.297656,-0.0992 0.118512,-0.0524 0.21773,-0.113 0.101975,-0.0606 0.165365,-0.10749 h 0.101975 v 0.79651 q -0.118512,0.0469 -0.21773,0.0882 -0.09646,0.0386 -0.26734,0.0799 -0.157096,0.0413 -0.325217,0.0634 -0.165364,0.0248 -0.405143,0.0248 z m 0.319705,-2.02847 q -0.0083,-0.30593 -0.143316,-0.46578 -0.132292,-0.15985 -0.407899,-0.15985 -0.28112,0 -0.440973,0.16812 -0.157096,0.16812 -0.173632,0.45751 z"
         style="font-style:normal;font-variant:normal;font-weight:bold;font-stretch:normal;font-size:5.64444447px;font-family:Tahoma;-inkscape-font-specification:'Tahoma Bold';fill:#000000;fill-opacity:1.0;stroke-width:0.26458332"
         id="path1281"
         inkscape:connector-curvature="0" />
      <path
         d="m 19.566764,287.59011 q -0.341753,0 -0.647678,-0.0744 -0.303168,-0.0744 -0.501606,-0.17363 v -0.8158 h 0.07993 q 0.0689,0.0524 0.157096,0.11576 0.08819,0.0634 0.245291,0.13229 0.135047,0.0634 0.303168,0.11024 0.170877,0.0441 0.369314,0.0441 0.20395,0 0.35829,-0.0634 0.157097,-0.0634 0.157097,-0.20119 0,-0.10749 -0.07166,-0.16261 -0.07166,-0.0551 -0.278364,-0.10473 -0.110243,-0.0276 -0.278364,-0.0579 -0.16812,-0.0331 -0.297656,-0.0744 -0.363802,-0.11299 -0.548459,-0.33348 -0.181901,-0.22324 -0.181901,-0.58429 0,-0.2067 0.09371,-0.38861 0.09646,-0.18465 0.28112,-0.32797 0.184657,-0.14056 0.454753,-0.22324 0.272851,-0.0827 0.614605,-0.0827 0.325217,0 0.598068,0.0661 0.272852,0.0634 0.460265,0.15434 v 0.78273 h -0.07717 q -0.04961,-0.0386 -0.157096,-0.10198 -0.107487,-0.0661 -0.209462,-0.113 -0.121268,-0.0551 -0.272852,-0.091 -0.148828,-0.0358 -0.305924,-0.0358 -0.209462,0 -0.355534,0.0717 -0.143316,0.0717 -0.143316,0.19017 0,0.10473 0.07166,0.16537 0.07166,0.0606 0.311437,0.11851 0.124023,0.0303 0.283875,0.0606 0.162609,0.0276 0.311437,0.0772 0.333485,0.10749 0.504362,0.31695 0.173633,0.20671 0.173633,0.55122 0,0.21773 -0.101975,0.41616 -0.101975,0.19569 -0.289388,0.33073 -0.198438,0.14608 -0.468533,0.226 -0.267339,0.0799 -0.642166,0.0799 z"
         style="font-style:normal;font-variant:normal;font-weight:bold;font-stretch:normal;font-size:5.64444447px;font-family:Tahoma;-inkscape-font-specification:'Tahoma Bold';fill:#000000;fill-opacity:1.0;stroke-width:0.26458332"
         id="path1283"
         inkscape:connector-curvature="0" />
      <path
         d="m 22.477181,287.59011 q -0.341754,0 -0.647678,-0.0744 -0.303169,-0.0744 -0.501606,-0.17363 v -0.8158 h 0.07993 q 0.0689,0.0524 0.157097,0.11576 0.08819,0.0634 0.24529,0.13229 0.135048,0.0634 0.303169,0.11024 0.170876,0.0441 0.369314,0.0441 0.20395,0 0.35829,-0.0634 0.157096,-0.0634 0.157096,-0.20119 0,-0.10749 -0.07166,-0.16261 -0.07166,-0.0551 -0.278363,-0.10473 -0.110244,-0.0276 -0.278364,-0.0579 -0.168121,-0.0331 -0.297656,-0.0744 -0.363803,-0.11299 -0.54846,-0.33348 -0.181901,-0.22324 -0.181901,-0.58429 0,-0.2067 0.09371,-0.38861 0.09646,-0.18465 0.28112,-0.32797 0.184657,-0.14056 0.454752,-0.22324 0.272852,-0.0827 0.614605,-0.0827 0.325217,0 0.598069,0.0661 0.272852,0.0634 0.460265,0.15434 v 0.78273 h -0.07717 q -0.04961,-0.0386 -0.157097,-0.10198 -0.107487,-0.0661 -0.209462,-0.113 -0.121267,-0.0551 -0.272851,-0.091 -0.148828,-0.0358 -0.305925,-0.0358 -0.209461,0 -0.355533,0.0717 -0.143316,0.0717 -0.143316,0.19017 0,0.10473 0.07166,0.16537 0.07166,0.0606 0.311436,0.11851 0.124024,0.0303 0.283876,0.0606 0.162609,0.0276 0.311437,0.0772 0.333485,0.10749 0.504362,0.31695 0.173632,0.20671 0.173632,0.55122 0,0.21773 -0.101974,0.41616 -0.101975,0.19569 -0.289388,0.33073 -0.198438,0.14608 -0.468533,0.226 -0.26734,0.0799 -0.642166,0.0799 z"
         style="font-style:normal;font-variant:normal;font-weight:bold;font-stretch:normal;font-size:5.64444447px;font-family:Tahoma;-inkscape-font-specification:'Tahoma Bold';fill:#000000;fill-opacity:1.0;stroke-width:0.26458332"
         id="path1285"
         inkscape:connector-curvature="0" />
      <path
         d="m 26.942025,287.50467 v -3.32107 h -1.212673 v -0.78273 h 3.456119 v 0.78273 h -1.212673 v 3.32107 z"
         style="font-style:normal;font-variant:normal;font-weight:bold;font-stretch:normal;font-size:5.64444447px;font-family:Tahoma;-inkscape-font-specification:'Tahoma Bold';fill:#000000;fill-opacity:1.0;stroke-width:0.26458332"
         id="path1287"
         inkscape:connector-curvature="0" />
      <path
         d="m 32.45969,287.50467 h -0.970139 v -1.53514 q 0,-0.18741 -0.01654,-0.37207 -0.01378,-0.18741 -0.05512,-0.2756 -0.04961,-0.10473 -0.143316,-0.14883 -0.09371,-0.0469 -0.250803,-0.0469 -0.118511,0 -0.239779,0.0441 -0.121267,0.0441 -0.259071,0.14056 v 2.19384 h -0.964626 v -4.28846 h 0.964626 v 1.53514 q 0.237023,-0.20119 0.460265,-0.31419 0.225998,-0.113 0.49885,-0.113 0.474045,0 0.724848,0.30041 0.250803,0.29766 0.250803,0.86541 z"
         style="font-style:normal;font-variant:normal;font-weight:bold;font-stretch:normal;font-size:5.64444447px;font-family:Tahoma;-inkscape-font-specification:'Tahoma Bold';fill:#000000;fill-opacity:1.0;stroke-width:0.26458332"
         id="path1289"
         inkscape:connector-curvature="0" />
      <path
         d="m 34.761014,287.58735 q -0.876432,0 -1.344965,-0.41892 -0.465777,-0.41893 -0.465777,-1.19338 0,-0.75792 0.43546,-1.20992 0.43546,-0.452 1.218186,-0.452 0.711067,0 1.069357,0.3831 0.35829,0.38309 0.35829,1.09692 v 0.34726 h -2.11391 q 0.01378,0.21498 0.09095,0.36105 0.07717,0.14331 0.20395,0.22875 0.124023,0.0854 0.289388,0.12403 0.165364,0.0358 0.361046,0.0358 0.16812,0 0.330729,-0.0358 0.162608,-0.0386 0.297656,-0.0992 0.118512,-0.0524 0.21773,-0.113 0.101975,-0.0606 0.165365,-0.10749 h 0.101975 v 0.79651 q -0.118512,0.0469 -0.21773,0.0882 -0.09646,0.0386 -0.26734,0.0799 -0.157096,0.0413 -0.325217,0.0634 -0.165364,0.0248 -0.405143,0.0248 z m 0.319705,-2.02847 q -0.0083,-0.30593 -0.143316,-0.46578 -0.132292,-0.15985 -0.407899,-0.15985 -0.28112,0 -0.440973,0.16812 -0.157096,0.16812 -0.173632,0.45751 z"
         style="font-style:normal;font-variant:normal;font-weight:bold;font-stretch:normal;font-size:5.64444447px;font-family:Tahoma;-inkscape-font-specification:'Tahoma Bold';fill:#000000;fill-opacity:1.0;stroke-width:0.26458332"
         id="path1291"
         inkscape:connector-curvature="0" />
      <path
         d="m 41.753179,287.50467 h -0.992188 l -1.581988,-2.86081 v 2.86081 h -0.942578 v -4.1038 h 1.265039 l 1.309136,2.35093 v -2.35093 h 0.942579 z"
         style="font-style:normal;font-variant:normal;font-weight:bold;font-stretch:normal;font-size:5.64444447px;font-family:Tahoma;-inkscape-font-specification:'Tahoma Bold';fill:#000000;fill-opacity:1.0;stroke-width:0.26458332"
         id="path1293"
         inkscape:connector-curvature="0" />
      <path
         d="m 45.506957,285.95851 q 0,0.76343 -0.418924,1.20441 -0.416167,0.43821 -1.179601,0.43821 -0.757921,0 -1.1796,-0.43821 -0.418924,-0.44098 -0.418924,-1.20441 0,-0.7717 0.418924,-1.20716 0.421679,-0.43822 1.1796,-0.43822 0.760677,0 1.179601,0.44097 0.418924,0.43822 0.418924,1.20441 z m -0.989432,0.006 q 0,-0.27561 -0.04685,-0.45751 -0.0441,-0.18465 -0.124023,-0.2949 -0.08544,-0.11575 -0.192926,-0.15985 -0.107487,-0.0469 -0.245291,-0.0469 -0.129535,0 -0.234266,0.0413 -0.104731,0.0386 -0.192925,0.15158 -0.08268,0.10749 -0.132292,0.2949 -0.04961,0.18742 -0.04961,0.47129 0,0.28388 0.04685,0.46027 0.04685,0.17363 0.121267,0.27836 0.07717,0.10749 0.192926,0.1571 0.115755,0.0496 0.256315,0.0496 0.115755,0 0.234266,-0.0496 0.121267,-0.0496 0.192925,-0.14883 0.08544,-0.11851 0.129536,-0.28388 0.0441,-0.16812 0.0441,-0.46302 z"
         style="font-style:normal;font-variant:normal;font-weight:bold;font-stretch:normal;font-size:5.64444447px;font-family:Tahoma;-inkscape-font-specification:'Tahoma Bold';fill:#000000;fill-opacity:1.0;stroke-width:0.26458332"
         id="path1295"
         inkscape:connector-curvature="0" />
      <path
         d="m 47.2047,287.5653 q -0.5898,0 -0.859896,-0.24253 -0.267339,-0.24254 -0.267339,-0.79375 v -1.44694 H 45.70815 v -0.67248 h 0.369315 v -0.88471 h 0.964626 v 0.88471 h 0.928798 v 0.67248 h -0.928798 v 1.09692 q 0,0.1626 0.0028,0.28387 0.0028,0.12127 0.0441,0.21773 0.03858,0.0965 0.135047,0.15434 0.09922,0.0551 0.286632,0.0551 0.07717,0 0.201194,-0.0331 0.12678,-0.0331 0.176389,-0.0606 h 0.08268 v 0.68075 q -0.157096,0.0413 -0.333485,0.0634 -0.176389,0.0248 -0.432704,0.0248 z"
         style="font-style:normal;font-variant:normal;font-weight:bold;font-stretch:normal;font-size:5.64444447px;font-family:Tahoma;-inkscape-font-specification:'Tahoma Bold';fill:#000000;fill-opacity:1.0;stroke-width:0.26458332"
         id="path1297"
         inkscape:connector-curvature="0" />
      <path
         d="m 49.952506,287.58735 q -0.876432,0 -1.344965,-0.41892 -0.465777,-0.41893 -0.465777,-1.19338 0,-0.75792 0.43546,-1.20992 0.43546,-0.452 1.218186,-0.452 0.711067,0 1.069357,0.3831 0.35829,0.38309 0.35829,1.09692 v 0.34726 h -2.11391 q 0.01378,0.21498 0.09095,0.36105 0.07717,0.14331 0.20395,0.22875 0.124023,0.0854 0.289388,0.12403 0.165364,0.0358 0.361046,0.0358 0.168121,0 0.330729,-0.0358 0.162609,-0.0386 0.297656,-0.0992 0.118512,-0.0524 0.21773,-0.113 0.101975,-0.0606 0.165365,-0.10749 h 0.101975 v 0.79651 q -0.118512,0.0469 -0.21773,0.0882 -0.09646,0.0386 -0.26734,0.0799 -0.157096,0.0413 -0.325217,0.0634 -0.165364,0.0248 -0.405143,0.0248 z m 0.319705,-2.02847 q -0.0083,-0.30593 -0.143316,-0.46578 -0.132292,-0.15985 -0.407899,-0.15985 -0.28112,0 -0.440973,0.16812 -0.157096,0.16812 -0.173632,0.45751 z"
         style="font-style:normal;font-variant:normal;font-weight:bold;font-stretch:normal;font-size:5.64444447px;font-family:Tahoma;-inkscape-font-specification:'Tahoma Bold';fill:#000000;fill-opacity:1.0;stroke-width:0.26458332"
         id="path1299"
         inkscape:connector-curvature="0" />
      <path
         d="m 52.661731,287.59011 q -0.341753,0 -0.647678,-0.0744 -0.303168,-0.0744 -0.501606,-0.17363 v -0.8158 h 0.07993 q 0.0689,0.0524 0.157097,0.11576 0.08819,0.0634 0.245291,0.13229 0.135047,0.0634 0.303168,0.11024 0.170877,0.0441 0.369314,0.0441 0.20395,0 0.35829,-0.0634 0.157097,-0.0634 0.157097,-0.20119 0,-0.10749 -0.07166,-0.16261 -0.07166,-0.0551 -0.278364,-0.10473 -0.110243,-0.0276 -0.278364,-0.0579 -0.168121,-0.0331 -0.297656,-0.0744 -0.363802,-0.11299 -0.548459,-0.33348 -0.181901,-0.22324 -0.181901,-0.58429 0,-0.2067 0.09371,-0.38861 0.09646,-0.18465 0.28112,-0.32797 0.184657,-0.14056 0.454753,-0.22324 0.272851,-0.0827 0.614605,-0.0827 0.325217,0 0.598068,0.0661 0.272852,0.0634 0.460265,0.15434 v 0.78273 h -0.07717 q -0.04961,-0.0386 -0.157097,-0.10198 -0.107486,-0.0661 -0.209461,-0.113 -0.121268,-0.0551 -0.272852,-0.091 -0.148828,-0.0358 -0.305924,-0.0358 -0.209462,0 -0.355534,0.0717 -0.143316,0.0717 -0.143316,0.19017 0,0.10473 0.07166,0.16537 0.07166,0.0606 0.311436,0.11851 0.124024,0.0303 0.283876,0.0606 0.162609,0.0276 0.311437,0.0772 0.333485,0.10749 0.504362,0.31695 0.173633,0.20671 0.173633,0.55122 0,0.21773 -0.101975,0.41616 -0.101975,0.19569 -0.289388,0.33073 -0.198438,0.14608 -0.468533,0.226 -0.26734,0.0799 -0.642166,0.0799 z"
         style="font-style:normal;font-variant:normal;font-weight:bold;font-stretch:normal;font-size:5.64444447px;font-family:Tahoma;-inkscape-font-specification:'Tahoma Bold';fill:#000000;fill-opacity:1.0;stroke-width:0.26458332"
         id="path1301"
         inkscape:connector-curvature="0" />
      <path
         d="m 59.766894,287.2704 q -0.270096,0.11025 -0.7028,0.21498 -0.429948,0.10473 -0.848871,0.10473 -0.967383,0 -1.543403,-0.55673 -0.573264,-0.55948 -0.573264,-1.58474 0,-0.96463 0.573264,-1.54616 0.57602,-0.58153 1.57372,-0.58153 0.515386,0 0.837847,0.0992 0.322461,0.0965 0.66697,0.26459 v 0.96187 h -0.09371 q -0.07441,-0.0579 -0.214974,-0.16261 -0.137804,-0.10749 -0.270096,-0.1819 -0.15434,-0.0882 -0.35829,-0.15159 -0.201193,-0.0634 -0.427192,-0.0634 -0.264583,0 -0.482313,0.0827 -0.21773,0.0827 -0.388607,0.25356 -0.162608,0.16536 -0.259071,0.41892 -0.09371,0.25356 -0.09371,0.5898 0,0.71934 0.361046,1.06109 0.361046,0.34175 0.986675,0.34175 0.05512,0 0.129536,-0.003 0.07441,-0.003 0.129535,-0.008 v -0.80478 H 57.97268 v -0.76894 h 1.794206 z"
         style="font-style:normal;font-variant:normal;font-weight:bold;font-stretch:normal;font-size:5.64444447px;font-family:Tahoma;-inkscape-font-specification:'Tahoma Bold';fill:#000000;fill-opacity:1.0;stroke-width:0.26458332"
         id="path1303"
         inkscape:connector-curvature="0" />
      <path
         d="m 62.200509,286.69714 v -0.64492 q -0.245291,0.0248 -0.396875,0.0441 -0.151584,0.0165 -0.297656,0.0689 -0.12678,0.0441 -0.198438,0.13504 -0.0689,0.0882 -0.0689,0.23703 0,0.21773 0.115756,0.30041 0.118511,0.0799 0.347265,0.0799 0.12678,0 0.259071,-0.0579 0.132292,-0.0579 0.239779,-0.16261 z m 0,0.47956 q -0.09922,0.0827 -0.179145,0.14882 -0.07717,0.0661 -0.209462,0.1323 -0.129535,0.0634 -0.253559,0.0965 -0.121267,0.0331 -0.341753,0.0331 -0.410656,0 -0.683507,-0.27561 -0.270096,-0.2756 -0.270096,-0.69453 0,-0.34451 0.137804,-0.55672 0.137804,-0.21222 0.396875,-0.33625 0.261827,-0.12678 0.62563,-0.17639 0.363802,-0.0496 0.782725,-0.0772 v -0.0165 q 0,-0.25632 -0.190169,-0.35278 -0.187413,-0.0992 -0.564996,-0.0992 -0.170876,0 -0.399631,0.0634 -0.228754,0.0606 -0.446484,0.1571 h -0.08268 v -0.7469 q 0.143316,-0.0413 0.46302,-0.0965 0.319705,-0.0579 0.644922,-0.0579 0.799262,0 1.163065,0.26734 0.366558,0.26458 0.366558,0.81029 v 2.10564 h -0.959115 z"
         style="font-style:normal;font-variant:normal;font-weight:bold;font-stretch:normal;font-size:5.64444447px;font-family:Tahoma;-inkscape-font-specification:'Tahoma Bold';fill:#000000;fill-opacity:1.0;stroke-width:0.26458332"
         id="path1305"
         inkscape:connector-curvature="0" />
      <path
         d="m 67.577617,287.50467 v -1.54616 q 0,-0.22875 -0.0083,-0.38585 -0.0083,-0.1571 -0.04961,-0.25632 -0.04134,-0.0992 -0.129536,-0.14331 -0.08544,-0.0469 -0.242534,-0.0469 -0.110243,0 -0.21773,0.0496 -0.107487,0.0469 -0.234267,0.13505 v 2.19384 h -0.970139 v -1.54616 q 0,-0.226 -0.01102,-0.38309 -0.0083,-0.15986 -0.04961,-0.25908 -0.04134,-0.0992 -0.129536,-0.14331 -0.08544,-0.0469 -0.239779,-0.0469 -0.118511,0 -0.23151,0.0551 -0.112999,0.0551 -0.220486,0.12953 v 2.19384 h -0.964627 v -3.09507 h 0.964627 v 0.34175 q 0.237022,-0.20119 0.446484,-0.31419 0.209462,-0.113 0.471289,-0.113 0.283876,0 0.49885,0.13504 0.214974,0.13505 0.327973,0.40239 0.278364,-0.25907 0.523655,-0.39687 0.248047,-0.14056 0.501606,-0.14056 0.214974,0 0.38585,0.0689 0.170877,0.0689 0.289388,0.2067 0.129536,0.14883 0.192926,0.35554 0.06615,0.20395 0.06615,0.53468 v 2.01469 z"
         style="font-style:normal;font-variant:normal;font-weight:bold;font-stretch:normal;font-size:5.64444447px;font-family:Tahoma;-inkscape-font-specification:'Tahoma Bold';fill:#000000;fill-opacity:1.0;stroke-width:0.26458332"
         id="path1307"
         inkscape:connector-curvature="0" />
      <path
         d="m 70.843566,287.58735 q -0.876432,0 -1.344965,-0.41892 -0.465777,-0.41893 -0.465777,-1.19338 0,-0.75792 0.43546,-1.20992 0.43546,-0.452 1.218186,-0.452 0.711067,0 1.069357,0.3831 0.35829,0.38309 0.35829,1.09692 v 0.34726 h -2.11391 q 0.01378,0.21498 0.09095,0.36105 0.07717,0.14331 0.20395,0.22875 0.124023,0.0854 0.289388,0.12403 0.165364,0.0358 0.361046,0.0358 0.16812,0 0.330729,-0.0358 0.162608,-0.0386 0.297656,-0.0992 0.118511,-0.0524 0.21773,-0.113 0.101975,-0.0606 0.165365,-0.10749 h 0.101975 v 0.79651 q -0.118512,0.0469 -0.21773,0.0882 -0.09646,0.0386 -0.26734,0.0799 -0.157096,0.0413 -0.325217,0.0634 -0.165364,0.0248 -0.405143,0.0248 z m 0.319705,-2.02847 q -0.0083,-0.30593 -0.143316,-0.46578 -0.132292,-0.15985 -0.407899,-0.15985 -0.28112,0 -0.440973,0.16812 -0.157096,0.16812 -0.173633,0.45751 z"
         style="font-style:normal;font-variant:normal;font-weight:bold;font-stretch:normal;font-size:5.64444447px;font-family:Tahoma;-inkscape-font-specification:'Tahoma Bold';fill:#000000;fill-opacity:1.0;stroke-width:0.26458332"
         id="path1309"
         inkscape:connector-curvature="0" />
    </g>
    <text
       xml:space="preserve"
       style="font-style:normal;font-variant:normal;font-weight:bold;font-stretch:normal;font-size:4.93888855px;line-height:0;font-family:Arial;-inkscape-font-specification:'Arial Bold';letter-spacing:0px;word-spacing:0px;fill:#000000;fill-opacity:1;stroke:none;stroke-width:0.26458332"
       x="-15.429906"
       y="286.41669"
       id="text1314"><tspan
         sodipodi:role="line"
         id="tspan1312"
         x="-15.429906"
         y="286.41669"
         style="font-size:3.52777767px;stroke-width:0.26458332">Tahoma</tspan></text>
    <text
       xml:space="preserve"
       style="font-style:normal;font-variant:normal;font-weight:bold;font-stretch:normal;font-size:4.93888855px;line-height:0;font-family:Arial;-inkscape-font-specification:'Arial Bold';letter-spacing:0px;word-spacing:0px;fill:#000000;fill-opacity:1;stroke:none;stroke-width:0.26458332"
       x="-14.935359"
       y="267.72275"
       id="text1318"><tspan
         sodipodi:role="line"
         id="tspan1316"
         x="-14.935359"
         y="267.72275"
         style="font-style:normal;font-variant:normal;font-weight:bold;font-stretch:normal;font-family:Baloo;-inkscape-font-specification:'Baloo Bold';stroke-width:0.26458332">Baloo</tspan></text>
  </g>
</svg>
