<?xml version="1.0" encoding="UTF-8" standalone="no"?>
<svg
   xmlns:dc="http://purl.org/dc/elements/1.1/"
   xmlns:cc="http://creativecommons.org/ns#"
   xmlns:rdf="http://www.w3.org/1999/02/22-rdf-syntax-ns#"
   xmlns:svg="http://www.w3.org/2000/svg"
   xmlns="http://www.w3.org/2000/svg"
   xmlns:sodipodi="http://sodipodi.sourceforge.net/DTD/sodipodi-0.dtd"
   xmlns:inkscape="http://www.inkscape.org/namespaces/inkscape"
   width="424.1265"
   height="452.91351"
   version="1.1"
   id="svg2606"
   sodipodi:docname="closing-bilahari7.svg"
   inkscape:version="0.92.4 (5da689c313, 2019-01-14)">
  <metadata
     id="metadata2612">
    <rdf:RDF>
      <cc:Work
         rdf:about="">
        <dc:format>image/svg+xml</dc:format>
        <dc:type
           rdf:resource="http://purl.org/dc/dcmitype/StillImage" />
        <dc:title></dc:title>
      </cc:Work>
    </rdf:RDF>
  </metadata>
  <defs
     id="defs2610" />
  <sodipodi:namedview
     pagecolor="#ffffff"
     bordercolor="#666666"
     borderopacity="1"
     objecttolerance="10"
     gridtolerance="10"
     guidetolerance="10"
     inkscape:pageopacity="0"
     inkscape:pageshadow="2"
     inkscape:window-width="1366"
     inkscape:window-height="715"
     id="namedview2608"
     showgrid="false"
     inkscape:zoom="1.8143902"
     inkscape:cx="217.62038"
     inkscape:cy="157.14268"
     inkscape:window-x="-8"
     inkscape:window-y="-8"
     inkscape:window-maximized="1"
     inkscape:current-layer="svg2606"
     showborder="false"
     fit-margin-top="0"
     fit-margin-left="0"
     fit-margin-right="0"
     fit-margin-bottom="0" />
  <path
     style="fill:#a3fba3;fill-opacity:1;stroke:#32cd32;stroke-width:1"
     inkscape:connector-curvature="0"
     d="m 218.96176,429.49015 c 7.86607,-1.56082 21.07928,2.67533 26.667,0 6.64108,-3.17966 9.05161,-11.62102 13.333,-17.61134 4.62414,-6.46988 6.31302,-16.0487 13.334,-19.7834 3.92375,-2.08717 9.6648,2.50926 13.333,0 10.12031,-6.92286 3.21269,-27.36054 13.333,-34.2834 3.66848,-2.50945 9.54823,2.32873 13.334,0 8.39399,-5.16338 4.93901,-21.22427 13.333,-26.38765 3.78549,-2.32856 9.77787,2.66705 13.333,0 12.70898,-9.53427 0.62502,-36.22585 13.334,-45.76012 3.55513,-2.66705 9.31242,-1.89395 13.333,0 6.31379,2.9742 7.01921,13.16952 13.333,16.14372 4.02088,1.89409 9.60139,-2.41303 13.334,0 9.09195,5.87771 4.24105,23.73869 13.333,29.6164 3.73233,2.41285 10.19038,-3.14262 13.333,0 6.21963,6.21963 6.21963,20.16802 0,26.38765 -3.14262,3.14262 -9.54751,2.32856 -13.333,0 -8.39399,-5.16338 -3.47807,-26.3875 -13.333,-26.38765 -9.85508,-1.5e-4 -8.67961,17.70092 -13.334,26.38765 -4.25505,7.94141 -7.50447,16.64094 -13.333,23.51114 -3.69632,4.35693 -9.47131,6.5612 -13.333,10.77226 -5.37486,5.86113 -8.70986,13.31352 -13.334,19.7834 -4.28139,5.99032 -5.96997,17.61134 -13.333,17.61134 -7.36303,0 -5.96997,-17.61121 -13.333,-17.61134 -7.36323,-1.3e-4 -7.86466,12.68148 -13.334,17.61134 -3.85905,3.4784 -9.3305,4.75953 -13.333,8.07186 -5.11985,4.23701 -6.72224,15.50337 -13.333,14.82288 -8.78512,-0.90431 -4.74133,-20.85462 -13.334,-22.89474 -14.06938,-3.34044 -25.76316,0 -40,0"
     class="raagLine"
     id="path"
     sodipodi:nodetypes="csssssssssssssssssssssssssssc" />
  <path
     style="fill:#a3fba3;stroke:#32cd32;stroke-width:1"
     inkscape:connector-curvature="0"
     d="m 219.79986,428.77145 c 0,0 6.28571,-6.2857 9.42856,-9.42856 3.14262,-3.14261 8.01294,-5.21477 9.42785,-9.42786 2.34414,-6.97991 -1.81683,-14.61775 -3.02524,-21.88095 -1.30513,-7.84466 -6.88416,-15.81213 -4.56041,-23.41753 1.29867,-4.25037 8.60837,-5.05973 9.42786,-9.42785 2.26094,-12.05135 -17.07512,-21.61855 -14.81417,-33.66989 0.81955,-4.36846 9.42856,-9.42856 9.42856,-9.42856 0,0 17.34126,9.49523 26.05274,7.19703 4.29731,-1.13365 5.41756,-7.5122 9.42785,-9.42785 5.15586,-2.46287 12.46262,0.37782 17.04571,-1.81142 4.58307,-2.18926 8.60835,-5.05974 9.42784,-9.42786 2.26094,-12.05134 -17.07511,-21.61854 -14.81417,-33.66991 0.81956,-4.36846 8.39828,-5.10496 9.42857,-9.42856 2.28438,-9.58651 -11.51541,-18.50023 -9.23104,-28.08674 1.03021,-4.32329 9.42786,-4.98352 9.42787,-9.42785 -1e-5,-26.99427 -30.26923,-57.26349 -57.26351,-57.2635 -4.44433,0 -6.28523,6.28524 -9.42784,9.42785 -3.14263,3.14262 -8.62806,5.05608 -9.42787,9.42786 -2.25921,12.34906 12.25891,22.20038 15.47765,34.33476 1.78945,6.74595 4.34892,14.27559 1.98748,20.84319 -1.50376,4.18221 -8.49478,5.08256 -9.42786,9.42786 -2.27298,10.58525 13.78638,19.78526 11.5134,30.37055 -0.93307,4.34527 -8.39765,5.10456 -9.42785,9.42785 -2.28439,9.58651 9.23103,28.08674 9.23103,28.08674 2.1124,6.42728 -17.40081,14.32217 -18.85642,18.85641 -2.2982,8.71147 6.46063,17.07337 7.19703,26.05275 0.46704,5.69478 0.65144,11.88983 -1.81142,17.0457 -1.91564,4.01029 -8.12927,5.17747 -9.42786,9.42785 -2.32356,7.60527 6.88469,15.81156 4.56113,23.41683 -1.29869,4.25071 -9.42857,9.42856 -9.42857,9.42856"
     class="raagLine"
     id="path-5"
     sodipodi:nodetypes="csssssscsszsssssssssssssscssssc" />
  <path
     style="fill:#a3fba3;stroke:#32cd32;stroke-width:1"
     inkscape:connector-curvature="0"
     d="m 219.11324,429.07771 0,-13.33397 -2e-5,-13.333 -17.61135,-13.33301 c 0,0 -16.04867,-6.31301 -19.78337,-13.33401 -2.08717,-3.92377 -1e-5,-13.33297 -1e-5,-13.33297 l -1e-5,-13.33301 1e-5,-13.33399 -1e-5,-13.33301 2e-5,-13.33302 0,-13.33397 -2e-5,-13.333 1e-5,-13.333 c -1e-5,-4.44468 -2.08742,-9.41 -1e-5,-13.334 3.73473,-7.02075 19.7834,-5.3807 19.78341,-13.333 0,-7.9523 -12.73702,-9.64685 -19.78339,-13.333 -10.86486,-5.68374 -27.36061,-3.21349 -34.28341,-13.33399 -2.5092,-3.66827 0,-13.33302 0,-13.33302 l 1e-5,-13.333 -1e-5,-13.334 -1e-5,-13.333 1e-5,-13.33299 -1e-5,-13.33401 1e-5,-13.33299 1e-5,-13.333 -1e-5,-13.334001 V 82.41075 69.077749 l 1e-5,-13.334001 c 0,0 2.32854,-9.54752 -1e-5,-13.33301 -5.16338,-8.39399 -26.3875,-3.47807 -26.38765,-13.33299 -1.4e-4,-9.85509 28.67221,-3.74737 26.38765,-13.33401 -5.575,-23.3941503 -55.14238,-17.0053803 -72.14777,10e-6 -3.14285,3.14285 0,8.88933 0,13.334 v 13.33299 13.333 13.333999 13.332998 l -10e-6,13.333015 c 10e-6,4.44466 2.85365,9.9264 0,13.33399 C 59.03524,128.4847 2.4082605,97.16748 0.5271905,122.41075 c -1.03355,13.86988 26.4419495,8.64795 39.5374595,13.333 11.82035,4.22883 24.36635,7.02968 35.22267,13.334 6.03543,3.50476 13.16952,7.0192 16.14371,13.33299 1.89395,4.02058 -2.41279,9.60064 10e-6,13.33302 5.87766,9.09213 19.84633,8.66921 29.61639,13.33397 8.89325,4.24614 21.22427,4.93904 26.38766,13.33301 1.03148,3.10119 0.62702,25.63383 -1e-5,26.66701 -5.11293,8.42481 -26.38764,3.47808 -26.38765,13.33301 0,9.85491 17.70108,8.67865 26.38767,13.33297 7.94154,4.25513 16.64091,7.50526 23.51114,13.33403 4.35686,3.69636 6.56114,9.47134 10.77224,13.33299 5.86109,5.37465 16.04868,6.31224 19.78341,13.333 2.08739,3.92402 -1e-5,8.88933 0,13.334 -1e-5,4.44433 2.08724,9.4093 -1e-5,13.333 -3.73473,7.02076 -12.73703,9.64683 -19.78339,13.333 -10.86485,5.6837 -33.39556,1.10442 -34.2834,13.33399 -0.65237,8.98586 16.64093,7.50445 23.51112,13.333 4.35695,3.6963 6.56123,9.47132 10.77229,13.33298 5.86112,5.37489 13.3135,8.70986 19.78337,13.33401 5.99034,4.28139 17.61137,5.96999 17.61135,13.33301 2e-5,7.36301 -11.62102,9.05161 -17.61132,13.33299 -6.4699,4.62416 -19.7834,13.33402 -19.7834,13.33402"
     class="raagLine"
     id="path-6"
     sodipodi:nodetypes="csccssscccccsssssccccccccccccssssssssssssssssscsssssssssssssssc" />
</svg>
